<svg width="20" height="20" viewBox="0 0 20 20" fill="none" xmlns="http://www.w3.org/2000/svg">
    <mask id="path-1-inside-1_3_55" fill="white">
        <path fill-rule="evenodd" clip-rule="evenodd"
              d="M4 2H15V12.126C15.3196 12.0438 15.6547 12 16 12V2V1H15H4H3V2V17V18H4H12.5351C12.3561 17.6905 12.2173 17.3548 12.126 17H4V2Z"/>
    </mask>
    <path d="M15 2H16V1H15V2ZM4 2V1H3V2H4ZM15 12.126H14V13.416L15.2493 13.0945L15 12.126ZM16 12V13H17V12H16ZM16 1H17V0H16V1ZM3 1V0H2V1H3ZM3 18H2V19H3V18ZM12.5351 18V19H14.2689L13.4007 17.4993L12.5351 18ZM12.126 17L13.0945 16.7507L12.9012 16H12.126V17ZM4 17H3V18H4V17ZM15 1H4V3H15V1ZM16 12.126V2H14V12.126H16ZM15.2493 13.0945C15.4881 13.033 15.7395 13 16 13V11C15.5699 11 15.1511 11.0545 14.7507 11.1576L15.2493 13.0945ZM17 12V2H15V12H17ZM17 2V1H15V2H17ZM16 0H15V2H16V0ZM15 0H4V2H15V0ZM4 0H3V2H4V0ZM2 1V2H4V1H2ZM2 2V17H4V2H2ZM2 17V18H4V17H2ZM3 19H4V17H3V19ZM4 19H12.5351V17H4V19ZM13.4007 17.4993C13.2665 17.2673 13.1627 17.016 13.0945 16.7507L11.1576 17.2493C11.2719 17.6935 11.4456 18.1137 11.6695 18.5007L13.4007 17.4993ZM4 18H12.126V16H4V18ZM3 2V17H5V2H3Z"
          fill="black" mask="url(#path-1-inside-1_3_55)"/>
    <circle cx="16" cy="16" r="3.5"/>
    <circle cx="16" cy="15" r="0.75" stroke-width="0.5"/>
    <path fill-rule="evenodd" clip-rule="evenodd"
          d="M16.5 17V17C16.5 16.7239 16.2761 16.5 16 16.5V16.5C15.7239 16.5 15.5 16.7239 15.5 17V17V18C15.5 18.2761 15.7239 18.5 16 18.5V18.5C16.2761 18.5 16.5 18.2761 16.5 18V17Z"
          fill="black"/>
    <path fill-rule="evenodd" clip-rule="evenodd"
          d="M11.75 5L13.5 5C13.7761 5 14 4.77614 14 4.5V4.5C14 4.22386 13.7761 4 13.5 4L11.75 4L5.5 4C5.22386 4 5 4.22386 5 4.5V4.5C5 4.77614 5.22386 5 5.5 5L11.75 5Z"
          fill="black"/>
    <path fill-rule="evenodd" clip-rule="evenodd"
          d="M11.75 8L13.5 8C13.7761 8 14 7.77614 14 7.5V7.5C14 7.22386 13.7761 7 13.5 7L11.75 7L5.5 7C5.22386 7 5 7.22386 5 7.5V7.5C5 7.77614 5.22386 8 5.5 8L11.75 8Z"
          fill="black"/>
    <path fill-rule="evenodd" clip-rule="evenodd"
          d="M11.75 11L13.5 11C13.7761 11 14 10.7761 14 10.5V10.5C14 10.2239 13.7761 10 13.5 10L11.75 10L5.5 10C5.22386 10 5 10.2239 5 10.5V10.5C5 10.7761 5.22386 11 5.5 11L11.75 11Z"
          fill="black"/>
    <path fill-rule="evenodd" clip-rule="evenodd"
          d="M9.5 14L10.5 14C10.7761 14 11 13.7761 11 13.5V13.5C11 13.2239 10.7761 13 10.5 13L9.5 13L5.5 13C5.22386 13 5 13.2239 5 13.5V13.5C5 13.7761 5.22386 14 5.5 14L9.5 14Z"
          fill="black"/>
</svg>
